<?xml version="1.0" standalone="no"?>
<!DOCTYPE svg PUBLIC "-//W3C//DTD SVG 20010904//EN"
 "http://www.w3.org/TR/2001/REC-SVG-20010904/DTD/svg10.dtd">
<svg version="1.0" xmlns="http://www.w3.org/2000/svg"
 width="500.000000pt" height="500.000000pt" viewBox="0 0 500.000000 500.000000"
 preserveAspectRatio="xMidYMid meet">
<metadata>
Created by potrace 1.11, written by Peter Selinger 2001-2013
</metadata>
<g transform="translate(0.000000,500.000000) scale(0.100000,-0.100000)"
fill="#000000" stroke="none">
<path d="M0 2500 l0 -2500 274 0 275 0 4 28 4 27 2 -27 1 -28 2220 0 2220 0 0
2500 0 2500 -2500 0 -2500 0 0 -2500z m2891 1663 c100 -175 333 -579 516 -898
184 -319 338 -587 343 -595 6 -8 17 -28 25 -45 9 -16 27 -48 40 -70 14 -22 30
-49 35 -60 5 -11 21 -38 35 -60 14 -22 32 -53 40 -70 9 -16 27 -48 40 -70 14
-22 30 -49 35 -60 5 -11 21 -38 35 -60 13 -22 31 -53 40 -70 8 -16 26 -48 40
-70 14 -22 30 -49 35 -60 5 -11 21 -38 35 -60 14 -22 28 -47 32 -55 8 -19 63
-114 85 -148 37 -58 49 -84 44 -98 -7 -20 -793 -21 -818 -1 -13 9 -377 632
-530 907 -14 25 -35 61 -47 80 -11 19 -28 49 -37 65 -8 17 -26 48 -39 70 -13
22 -30 51 -38 65 -7 14 -24 43 -37 65 -13 22 -30 52 -37 67 -8 15 -18 30 -23
33 -5 3 -11 18 -15 34 -7 33 -31 47 -51 30 -7 -6 -27 -39 -45 -72 -17 -34 -42
-80 -54 -102 -13 -22 -30 -51 -38 -65 -7 -14 -26 -47 -42 -75 -76 -135 -611
-1065 -632 -1097 -24 -40 -30 -68 -13 -68 6 0 41 16 78 35 37 19 135 66 217
106 l150 71 194 0 c151 0 196 -3 202 -14 12 -17 11 -101 0 -131 -6 -16 -67
-57 -205 -138 -108 -63 -209 -121 -224 -129 -30 -16 -149 -86 -190 -111 -15
-9 -163 -96 -330 -193 l-302 -176 -393 0 c-215 0 -400 0 -409 0 -26 0 -23 37
6 79 14 20 475 817 1025 1771 550 954 1005 1741 1011 1748 6 6 15 12 19 12 5
0 91 -143 192 -317z m-177 -1729 c9 -8 16 -20 16 -25 0 -6 25 -52 55 -104 30
-51 55 -96 55 -99 0 -3 16 -29 36 -57 20 -29 34 -60 32 -72 -3 -22 -5 -22
-223 -22 -195 0 -220 2 -223 16 -2 9 3 23 10 30 16 16 178 294 178 305 0 10
31 44 41 44 4 0 15 -7 23 -16z"/>
</g>
</svg>
